HIERARCHY
ROOT Hips
{
  OFFSET -35.2597 29.1586 114.425
  CHANNELS 6 Xposition Yposition Zposition Zrotation Xrotation Yrotation
  JOINT LeftUpLeg
  {
    OFFSET 8.64259 1.95398 -2.38835
    CHANNELS 3 Zrotation Xrotation Yrotation
    JOINT LeftLeg
    {
      OFFSET 43.7702 0 0
      CHANNELS 3 Zrotation Xrotation Yrotation
      JOINT LeftFoot
      {
        OFFSET 40.6238 0 0
        CHANNELS 3 Zrotation Xrotation Yrotation
        JOINT LeftToeBase
        {
          OFFSET 12.7242 0 0
          CHANNELS 3 Zrotation Xrotation Yrotation
          End Site
          {
            OFFSET 0 0 0
          }
        }
      }
    }
  }
  JOINT RightUpLeg
  {
    OFFSET -8.2249 1.95398 -2.59336
    CHANNELS 3 Zrotation Xrotation Yrotation
    JOINT RightLeg
    {
      OFFSET 43.5653 0 0
      CHANNELS 3 Zrotation Xrotation Yrotation
      JOINT RightFoot
      {
        OFFSET 40.6238 0 0
        CHANNELS 3 Zrotation Xrotation Yrotation
        JOINT RightToeBase
        {
          OFFSET 12.7242 0 0
          CHANNELS 3 Zrotation Xrotation Yrotation
          End Site
          {
            OFFSET 0 0 0
          }
        }
      }
    }
  }
  JOINT Spine
  {
    OFFSET 0.165834 0.87714 6.61349
    CHANNELS 3 Zrotation Xrotation Yrotation
    JOINT Spine1
    {
      OFFSET 7.38963 1.71661e-005 0
      CHANNELS 3 Zrotation Xrotation Yrotation
      JOINT Spine2
      {
        OFFSET 11.9445 1.14441e-005 0
        CHANNELS 3 Zrotation Xrotation Yrotation
        JOINT Spine3
        {
          OFFSET 14.7254 4.19617e-005 0
          CHANNELS 3 Zrotation Xrotation Yrotation
          JOINT Spine4
          {
            OFFSET 10.9679 0 0
            CHANNELS 3 Zrotation Xrotation Yrotation
            JOINT RightShoulder
            {
              OFFSET 2.46616 -1.6653 3.69651
              CHANNELS 3 Zrotation Xrotation Yrotation
              JOINT RightArm
              {
                OFFSET 13.0012 0 0
                CHANNELS 3 Zrotation Xrotation Yrotation
                JOINT RightForeArm
                {
                  OFFSET 28.7848 1.62311e-005 0
                  CHANNELS 3 Zrotation Xrotation Yrotation
                  JOINT RightHand
                  {
                    OFFSET 26.5688 1.62095e-005 0
                    CHANNELS 3 Zrotation Xrotation Yrotation
                    End Site
                    {
                      OFFSET 0 0 0
                    }
                  }
                }
              }
            }
            JOINT LeftShoulder
            {
              OFFSET 2.38034 -1.29275 -3.7523
              CHANNELS 3 Zrotation Xrotation Yrotation
              JOINT LeftArm
              {
                OFFSET 16.3182 6.07031e-005 0
                CHANNELS 3 Zrotation Xrotation Yrotation
                JOINT LeftForeArm
                {
                  OFFSET 27.0901 0 0
                  CHANNELS 3 Zrotation Xrotation Yrotation
                  JOINT LeftHand
                  {
                    OFFSET 24.5451 1.51738e-005 0
                    CHANNELS 3 Zrotation Xrotation Yrotation
                    End Site
                    {
                      OFFSET 0 0 0
                    }
                  }
                }
              }
            }
            JOINT Neck
            {
              OFFSET 5.0226 -0.0266342 0
              CHANNELS 3 Zrotation Xrotation Yrotation
              JOINT Head
              {
                OFFSET 6.69364 2.86102e-005 0
                CHANNELS 3 Zrotation Xrotation Yrotation
                End Site
                {
                  OFFSET 0 0 0
                }
              }
            }
          }
        }
      }
    }
  }
}
MOTION
Frames:	7
Frame Time:	0.0416667
245.947 95.6758 230.523 -91.416 43.1136 -92.2655 -175.267 26.4667 84.4699 -28.5855 17.1868 -3.99423 59.8055 -1.48518 0.390706 15.05 -7.94128 1.07407 164.209 -17.6917 85.6539 -78.0025 -5.73861 0.269399 62.0215 -2.16597 -4.69604 97.9818 -18.6367 23.3046 2.46882 8.16025 -88.6944 10.5053 5.51674 2.1038 -1.15522 5.60397 1.85834 -23.7477 4.62939 3.66671 -3.73502 4.6294 3.6667 91.0977 -25.8382 -106.137 39.4058 2.61975 18.8917 -42.3612 -26.6968 -63.6294 -31.7903 7.81427 -32.6997 -86.0075 -51.4701 84.9343 -16.7193 -27.9116 62.7208 68.7493 -25.1288 -101.644 15.118 -11 -68.0391 15.2662 -11.3631 -11.2543 -2.61501 -7.98437 -1.20007 
237.493 93.1895 222.638 -92.2565 39.2173 -95.7642 -172.91 25.2646 79.6758 -44.0305 20.3542 -4.821 72.1771 8.39572 3.93606 18.6593 -6.65042 2.25011 160.338 -5.18222 81.9725 -99.2142 -2.22475 -1.59457 64.5283 -4.92647 -4.49088 100.274 -20.6238 19.2466 1.31271 8.38729 -88.1046 10.0391 3.4785 3.4793 -1.63136 3.62819 3.3229 -24.1482 2.27303 4.3627 -4.13551 2.27304 4.3627 91.1565 -29.6463 -104.579 49.3055 0.242642 13.6464 -29.8548 -36.5365 -42.5437 -53.1029 12.7437 -30.4044 -87.7923 -58.7557 83.4715 -20.3179 -17.4078 40.3607 60.6106 -21.1549 -103.539 21.598 -13.36 -61.4446 17.3737 -10.5083 -14.5329 -1.17166 -5.99377 -0.306016 
229.547 91.0528 215.874 -92.5183 35.8761 -100.561 -172.984 18.7688 75.5066 -48.031 21.407 -5.23236 80.1813 14.9945 3.59005 22.8386 -4.96034 3.40885 162.683 14.2501 80.8436 -116.918 -16.1644 -3.8599 53.7134 2.45372 -12.337 100.95 -24.7733 9.48112 0.13352 8.61759 -87.4787 9.57837 1.40325 4.88631 -2.1008 1.61667 4.82003 -24.5621 -0.127985 5.08176 -4.54941 -0.127993 5.08176 93.6884 -26.668 -100.293 56.8829 3.27339 14.8078 -19.6968 -45.6475 -24.8121 -53.9766 15.5262 -35.5726 -88.3438 -56.4564 82.335 -19.9263 -0.236438 10.7206 65.8276 -16.3842 -99.2614 39.146 -14.7205 -43.7433 21.9276 -8.71381 -14.2611 -2.16828 -3.69831 -2.49106 
221.109 90.6199 208.433 -90.8844 36.8145 -99.3999 -173.012 10.3793 79.8985 -45.9075 18.5215 -4.32465 89.633 20.2284 -2.08419 22.9169 -6.40834 5.99957 167.14 34.7274 86.9005 -121.198 -41.2815 -5.60099 29.5569 28.9054 -26.0556 99.2476 -28.87 -2.74544 -0.729616 8.4148 -87.8678 10.0311 -0.484131 4.27298 -1.64676 -0.295786 4.2901 -24.1332 -1.74495 3.93091 -4.1205 -1.74497 3.93091 95.9631 -22.5813 -96.4738 53.965 6.12618 35.6286 -47.6817 -51.0661 -53.9384 -49.452 13.761 -34.9252 -88.8224 -47.6439 80.0073 -17.2068 1.21155 -10.1514 57.7781 -12.6432 -99.5956 41.4463 -16.2051 -43.3457 24.8843 -4.07391 -11.594 -4.74658 0.291148 -2.20515 
211.754 92.2272 199.977 -89.3659 38.999 -95.4552 -171.787 -2.08684 85.4569 -34.362 19.597 -3.45904 87.9563 21.4489 1.25143 26.1961 -1.95384 1.27932 171.392 41.975 94.5846 -114.544 -36.358 -4.87613 44.7059 17.4101 -41.3323 66.6453 -15.1068 -0.371654 -1.70429 8.15323 -88.7125 10.5972 -2.80225 2.81183 -1.07405 -2.67583 2.93238 -23.6212 -3.51757 1.83948 -3.60856 -3.51758 1.83948 95.9844 -19.2068 -97.3659 44.9802 11.1714 46.3748 -65.5378 -54.1785 -69.2695 -49.3895 15.2264 -38.0023 -86.3961 -37.9548 82.0144 -17.3476 -4.95621 -14.959 49.1223 -14.7401 -104.067 41.1545 -17.981 -47.4151 27.2017 2.3783 -8.89775 -6.85817 5.67053 -1.00696 
201.1 95.3257 190.86 -89.7878 40.7616 -91.189 -171.705 -14.6975 89.7148 -20.4301 21.1366 -1.44724 67.8587 7.78229 4.57465 40.6288 5.05475 1.79181 177.47 41.2526 95.8661 -97.8397 -14.1024 -3.81285 68.1184 -8.61726 -25.4458 26.8839 -1.97612 9.59784 -2.42026 8.18111 -89.493 10.5506 -4.5877 1.42132 -1.1132 -4.5207 1.6222 -23.7139 -4.80235 -0.026294 -3.70129 -4.80235 -0.0262968 96.9215 -16.3087 -95.754 36.9761 13.8618 54.5779 -76.3536 -50.4982 -79.1382 -44.5781 14.4795 -40.0607 -84.0943 -25.0365 83.7318 -18.0876 -8.14165 -12.0476 46.7342 -16.5861 -106.703 44.0477 -19.6502 -48.1908 30.2768 7.59377 -8.27828 -10.6319 10.4104 1.8288 
190.076 98.39 181.069 -86.7044 42.2857 -88.4729 -171.695 -21.9547 92.8595 -10.3166 22.5603 1.2904 51.205 -4.52304 1.74829 26.5166 -1.76431 -0.0842284 -179.59 41.9414 98.1051 -74.2779 1.22242 -2.88981 77.7042 -10.7602 -3.16543 16.8841 1.24503 9.51208 -2.83595 7.92232 -90.6413 11.0299 -5.94279 -0.700169 -0.627364 -5.96784 -0.437009 -23.2577 -5.4568 -2.45895 -3.24509 -5.45679 -2.45895 98.1594 -8.68345 -94.9032 36.2854 14.5978 61.458 -76.6939 -46.9851 -80.0552 -46.8024 14.353 -38.0801 -83.1691 -16.0938 83.5582 -18.6982 -9.71826 -6.76899 46.4469 -17.9243 -108.011 43.8072 -18.9238 -46.8818 33.3494 11.696 -6.31704 -18.0548 13.0259 5.78624 
